<svg height="512" viewBox="0 0 64 64" width="512" xmlns="http://www.w3.org/2000/svg"><g id="Fill_Outline" data-name="Fill Outline"><g id="Stroke_copy" data-name="Stroke copy"><g><g><rect fill="#84d2f4" height="41" rx="6" width="58" x="3" y="3"/><path d="m13 55h38a4 4 0 0 1 4 4v2a0 0 0 0 1 0 0h-46a0 0 0 0 1 0 0v-2a4 4 0 0 1 4-4z" fill="#e9f1f2"/><path d="m42 44h-20a13.082 13.082 0 0 1 -5.824 10.883l-.176.117h32l-.176-.117a13.082 13.082 0 0 1 -5.824-10.883z" fill="#d0d8da"/><path d="m55 59v2h-46v-2a4 4 0 0 1 4-4h.13a3.992 3.992 0 0 0 3.87 3h37.87a3.657 3.657 0 0 1 .13 1z" fill="#d0d8da"/><path d="m42 44h-20a13.082 13.082 0 0 1 -5.824 10.883l-.176.117z" fill="#93999a"/><path d="m61 33v5a6 6 0 0 1 -6 6h-46a6 6 0 0 1 -6-6v-29a6 6 0 0 1 6-6h7v8a22 22 0 0 0 22 22z" fill="#57b7eb"/></g><circle cx="42" cy="21" fill="#d0d8da" r="3"/><path d="m45 21a3 3 0 1 1 -3.99-2.82 2.986 2.986 0 0 0 2.99 2.82 2.718 2.718 0 0 0 .99-.18 1.087 1.087 0 0 1 .01.18z" fill="#93999a"/><path d="m30 34a12 12 0 0 1 24 0z" fill="#d0d8da"/><path d="m48.927 31a1 1 0 0 1 -.866-.5 7.073 7.073 0 0 0 -4.194-3.249 1 1 0 1 1 .534-1.928 9.1 9.1 0 0 1 5.391 4.177 1 1 0 0 1 -.364 1.367.99.99 0 0 1 -.501.133z" fill="#e9f1f2"/><path d="m55 38h-26a2 2 0 0 1 -2-2 2 2 0 0 1 2-2h26a2 2 0 0 1 2 2 2 2 0 0 1 -2 2z" fill="#d0d8da"/><path d="m29 34a2 2 0 0 0 0 4h26a2 2 0 0 0 2-2h-26a2 2 0 0 1 -2-2z" fill="#93999a"/><path d="m54 34h-24a11.99 11.99 0 0 1 5.2-9.89 11.007 11.007 0 0 0 18.17 6.06 11.831 11.831 0 0 1 .63 3.83z" fill="#93999a"/><g><path d="m10 8h34v4h-34z" fill="#4891d3"/><path d="m14 8h26v22h-26z" fill="#f9e109"/><path d="m40 21v9h-26v-22h4v3a10 10 0 0 0 10 10z" fill="#fcbc04"/><path d="m8 24h26v32h-26z" fill="#f9e109"/><path d="m34 30h6l-6-6z" fill="#e59730"/><path d="m34 49v7h-26v-32h6v15a10 10 0 0 0 10 10z" fill="#fcbc04"/></g><circle cx="53" cy="14" fill="#f9e109" r="4"/></g></g><g id="Outline_copy" data-name="Outline copy"><g fill="#464a51"><path d="m55 2h-46a7.008 7.008 0 0 0 -7 7v7a1 1 0 0 0 2 0v-7a5.006 5.006 0 0 1 5-5h46a5.006 5.006 0 0 1 5 5v12a1 1 0 0 0 2 0v-12a7.008 7.008 0 0 0 -7-7z"/><path d="m61 24a1 1 0 0 0 -1 1v13a5.006 5.006 0 0 1 -5 5h-17a1 1 0 0 0 0 2h3.062a14 14 0 0 0 4.138 9h-7.2a1 1 0 0 0 0 2h13a3 3 0 0 1 3 3v1h-44v-1a2.843 2.843 0 0 1 .207-1h23.793a1 1 0 0 0 1-1v-9a1 1 0 0 0 -2 0v8h-24v-20a1 1 0 0 0 -2 0v6.56a4.964 4.964 0 0 1 -3-4.56v-18a1 1 0 0 0 -2 0v18a6.967 6.967 0 0 0 5 6.7v12.3a1 1 0 0 0 1 1h.115a4.851 4.851 0 0 0 -.115 1v2a1 1 0 0 0 1 1h46a1 1 0 0 0 1-1v-2a5.006 5.006 0 0 0 -5-5h-2.688a12.033 12.033 0 0 1 -5.25-9h11.938a7.008 7.008 0 0 0 7-7v-13a1 1 0 0 0 -1-1z"/><path d="m43.868 27.253a7.071 7.071 0 0 1 4.193 3.247 1 1 0 0 0 .866.5.99.99 0 0 0 .5-.135 1 1 0 0 0 .364-1.367 9.094 9.094 0 0 0 -5.391-4.173 1 1 0 1 0 -.533 1.928z"/><path d="m8 23a1 1 0 0 0 -1 1v8a1 1 0 0 0 2 0v-7h24v19a1 1 0 0 0 2 0v-5h20a3 3 0 0 0 0-6h-.051a13.02 13.02 0 0 0 -9.021-11.39 3.8 3.8 0 0 0 .072-.61 4 4 0 0 0 -4-4 3.918 3.918 0 0 0 -1 .146v-4.146h3a1 1 0 0 0 1-1v-4a1 1 0 0 0 -1-1h-34a1 1 0 0 0 -1 1v4a1 1 0 0 0 1 1h3v10zm29.586 6h-2.586v-2.586zm15.363 4h-14.949a1 1 0 0 0 0 2h17a1 1 0 0 1 0 2h-20v-6h5a1 1 0 0 0 1-1v-6.943a10 10 0 0 1 1-.057 11.01 11.01 0 0 1 10.949 10zm-10.949-14a2 2 0 0 1 2 2c0 .056-.015.111-.02.167a12.932 12.932 0 0 0 -1.98-.167c-.325 0-.658.017-1 .046v-1.762a1.9 1.9 0 0 1 1-.284zm1-8h-2v-2h2zm-32 0v-2h2v2zm4-2h24v18.586l-4.292-4.292a.994.994 0 0 0 -.708-.294h-19z"/><path d="m22 13h10a1 1 0 0 0 0-2h-10a1 1 0 0 0 0 2z"/><path d="m18 17h18a1 1 0 0 0 0-2h-18a1 1 0 0 0 0 2z"/><path d="m30 19h-12a1 1 0 0 0 0 2h12a1 1 0 0 0 0-2z"/><path d="m26 41a1.5 1.5 0 0 1 1.5 1.5 1 1 0 0 0 2 0 3.494 3.494 0 0 0 -2.5-3.337v-1.163a1 1 0 0 0 -2 0v1.163a3.49 3.49 0 0 0 1 6.837 1.5 1.5 0 1 1 -1.5 1.5 1 1 0 0 0 -2 0 3.494 3.494 0 0 0 2.5 3.337v1.163a1 1 0 0 0 2 0v-1.163a3.49 3.49 0 0 0 -1-6.837 1.5 1.5 0 0 1 0-3z"/><path d="m30 27h-18a1 1 0 0 0 0 2h18a1 1 0 0 0 0-2z"/><path d="m31 32a1 1 0 0 0 -1-1h-18a1 1 0 0 0 0 2h18a1 1 0 0 0 1-1z"/><path d="m22 36a1 1 0 0 0 -1-1h-9a1 1 0 0 0 0 2h9a1 1 0 0 0 1-1z"/><path d="m18 39h-6a1 1 0 0 0 0 2h6a1 1 0 0 0 0-2z"/><path d="m18 43h-6a1 1 0 0 0 0 2h6a1 1 0 0 0 0-2z"/><path d="m18 47h-6a1 1 0 0 0 0 2h6a1 1 0 0 0 0-2z"/><path d="m58 14a5 5 0 1 0 -5 5 5.006 5.006 0 0 0 5-5zm-8 0a3 3 0 1 1 3 3 3 3 0 0 1 -3-3z"/><circle cx="53" cy="14" r="1"/></g></g></g></svg>