<svg height="512" viewBox="0 0 64 64" width="512" xmlns="http://www.w3.org/2000/svg"><g id="Fill_Outline" data-name="Fill Outline"><g id="Stroke_copy" data-name="Stroke copy"><g><g><path d="m19 3h42v36h-42z" fill="#c4f236"/><path d="m61 32v7h-42v-36h12v10a19 19 0 0 0 19 19z" fill="#a1d51c"/><path d="m19 3h4v36h-4z" fill="#7ab92d"/><path d="m23 24h-3a3 3 0 0 1 -3-3 3 3 0 0 1 3-3h3z" fill="#f9e109"/><path d="m23 18v6h-3a3 3 0 0 1 -2.12-5.12.806.806 0 0 1 .14-.12.974.974 0 0 0 -.02.24 3 3 0 0 0 3 3v-4z" fill="#fcbc04"/></g><path d="m14 39h42v6h-42z" fill="#7ab92d"/><path d="m9 45h42v6h-42z" fill="#a1d51c"/><path d="m17 51h42v6h-42z" fill="#7ab92d"/><g><path d="m43.836 35.56a30.173 30.173 0 0 1 -16.4-16.4l28-11.6z" fill="#fcbc04"/><path d="m45.54 31.47-1.7 4.09a30.163 30.163 0 0 1 -16.4-16.4l4.09-1.7a19.016 19.016 0 0 0 14.01 14.01z" fill="#e59730"/><path d="m46.089 30.124 9.351-22.564-22.564 9.351a24.575 24.575 0 0 0 13.213 13.213z" fill="#f7f754"/><path d="m50.98 18.33-4.89 11.79a24.561 24.561 0 0 1 -13.21-13.21l3.72-1.54a10.124 10.124 0 0 0 14.38 2.96z" fill="#f9e109"/><circle cx="42" cy="25" fill="#f8664f" r="2"/><circle cx="41" cy="16" fill="#f89c8d" r="2"/><path d="m52.27 15.21-3.05 7.36a3.956 3.956 0 0 1 -2.22-3.57 4 4 0 0 1 4-4 3.845 3.845 0 0 1 1.27.21z" fill="#f89c8d"/><path d="m50.98 18.33-1.76 4.24a3.951 3.951 0 0 1 -2.11-2.63 10.127 10.127 0 0 0 3.87-1.61z" fill="#f8664f"/></g><circle cx="55" cy="32" fill="#f8664f" r="2"/><g fill="#5ba006"><path d="m56 39v3h-34a4.025 4.025 0 0 0 -2.83 1.17 4.078 4.078 0 0 0 -1.04 1.83h-4.13v-6z"/><path d="m59 51v3h-31a4.025 4.025 0 0 0 -2.83 1.17 4.078 4.078 0 0 0 -1.04 1.83h-7.13v-6z"/><path d="m53 56a4.712 4.712 0 0 1 -.1 1h-9.8a4.712 4.712 0 0 1 -.1-1 5 5 0 0 1 10 0z"/></g><path d="m51 51v-3h-34a4.025 4.025 0 0 1 -2.83-1.17 4.078 4.078 0 0 1 -1.04-1.83h-4.13v6z" fill="#7ab92d"/><circle cx="27" cy="56" fill="#f9e109" r="5"/><circle cx="50" cy="56" fill="#f9e109" r="5"/><path d="m31.39 58.39a5 5 0 1 1 -6.78-6.78 4.935 4.935 0 0 0 -.61 2.39 5 5 0 0 0 5 5 4.935 4.935 0 0 0 2.39-.61z" fill="#fcbc04"/><path d="m54.39 58.39a5 5 0 1 1 -6.78-6.78 4.935 4.935 0 0 0 -.61 2.39 5 5 0 0 0 5 5 4.935 4.935 0 0 0 2.39-.61z" fill="#fcbc04"/></g></g><g id="Outline_copy" data-name="Outline copy"><g fill="#464a51"><path d="m61 2h-34a1 1 0 0 0 0 2h33v21.124a1 1 0 0 0 2 0v-22.124a1 1 0 0 0 -1-1z"/><path d="m61 28a1 1 0 0 0 -1 1v9h-36v-31a1 1 0 0 0 -2 0v10h-2v-13h3a1 1 0 0 0 0-2h-20a1 1 0 0 0 0 2h15v5h-11a1 1 0 0 0 0 2h11v6.556a3.965 3.965 0 0 0 0 6.888v1.556h-5a1 1 0 0 0 0 2h5v2h-12a1 1 0 0 0 0 2h12v6h-15a1 1 0 0 0 0 2h10v4h-8a1 1 0 0 0 0 2h3v5a1 1 0 0 0 1 1h7v4h-8a1 1 0 0 0 0 2h10.1a1 1 0 0 0 0-2h-.1v-4h4.54a5.965 5.965 0 0 0 0 8h-10.54a1 1 0 0 0 0 2h15a6 6 0 0 0 5.65-4h8.45a1 1 0 0 0 0-2h-8.1a5.965 5.965 0 0 0 -1.541-4h14.081a5.965 5.965 0 0 0 0 8h-2.54a1 1 0 0 0 0 2h7a6 6 0 0 0 5.65-4h3.35a1 1 0 0 0 1-1v-6a1 1 0 0 0 -1-1h-7v-4h4a1 1 0 0 0 1-1v-2a1 1 0 0 0 -2 0v1h-40v-4h46a1 1 0 0 0 1-1v-10a1 1 0 0 0 -1-1zm-30 28a4 4 0 1 1 -4-4 4 4 0 0 1 4 4zm19 4a4 4 0 1 1 4-4 4 4 0 0 1 -4 4zm8-4h-2a5.965 5.965 0 0 0 -1.541-4h3.541zm-8-10v4h-40v-4zm-30-27h2v4h-2a2 2 0 0 1 0-4zm0 6h2v13h-2z"/><circle cx="50" cy="56" r="1"/><circle cx="27" cy="56" r="1"/><path d="m39 60h-4a1 1 0 0 0 0 2h4a1 1 0 0 0 0-2z"/><path d="m8 60h-5a1 1 0 0 0 0 2h5a1 1 0 0 0 0-2z"/><path d="m46.825 11.13a1 1 0 0 0 -1.306-.541l-13.025 5.4-5.43 2.251a1 1 0 0 0 -.541 1.306 31.064 31.064 0 0 0 16.931 16.938 1 1 0 0 0 1.307-.541l11.6-28a1 1 0 0 0 -1.306-1.307l-5.841 2.422a1 1 0 0 0 .765 1.847l3.613-1.5-1.926 4.646a4.981 4.981 0 0 0 -3.69 8.906l-2.408 5.809a23.41 23.41 0 0 1 -2.144-1.145 2.992 2.992 0 1 0 -4.33-3.332 23.608 23.608 0 0 1 -4.864-6.86l3.784-1.568c0 .046-.014.089-.014.136a3 3 0 1 0 5.014-2.208l3.27-1.355a1 1 0 0 0 .541-1.304zm-4.825 12.87a1 1 0 1 1 -1 1 1 1 0 0 1 1-1zm-1-7a1 1 0 1 1 1-1 1 1 0 0 1 -1 1zm7 2a3 3 0 0 1 2.854-2.985l-2.072 5a2.96 2.96 0 0 1 -.782-2.015zm-3.207 11.641-1.491 3.6a29.038 29.038 0 0 1 -14.54-14.541l3.6-1.491a25.744 25.744 0 0 0 12.431 12.432z"/><path d="m14 16a1 1 0 0 0 0-2h-4a1 1 0 0 0 0 2z"/><path d="m52 32a3 3 0 1 0 3-3 3 3 0 0 0 -3 3zm4 0a1 1 0 1 1 -1-1 1 1 0 0 1 1 1z"/><path d="m56 17a1 1 0 0 0 -1 1v6a1 1 0 0 0 2 0v-6a1 1 0 0 0 -1-1z"/><path d="m32 6h-5a1 1 0 0 0 0 2h5a1 1 0 0 0 0-2z"/><path d="m27 12h3a1 1 0 0 0 0-2h-3a1 1 0 0 0 0 2z"/><path d="m27 35h4a1 1 0 0 0 0-2h-4a1 1 0 0 0 0 2z"/></g></g></g></svg>