<svg height="512" viewBox="0 0 64 64" width="512" xmlns="http://www.w3.org/2000/svg"><g id="Fill_Outline" data-name="Fill Outline"><g id="Stroke_copy" data-name="Stroke copy"><g id="Layer_5_copy_5" data-name="Layer 5 copy 5"><g><circle cx="17" cy="55" fill="#57b7eb" r="6"/><path d="m19 59a5.936 5.936 0 0 0 3.12-.88 5.994 5.994 0 1 1 .88-3.12h-9.65a5.991 5.991 0 0 0 5.65 4z" fill="#4891d3"/><path d="m49 22h6a0 0 0 0 1 0 0v6a0 0 0 0 1 0 0h-8a0 0 0 0 1 0 0v-4a2 2 0 0 1 2-2z" fill="#e9f1f2"/><path d="m56 28h-1v-6h1a3 3 0 0 1 3 3 3 3 0 0 1 -3 3z" fill="#f9e109"/><circle cx="17" cy="55" fill="#656b76" r="2"/><circle cx="52" cy="55" fill="#57b7eb" r="6"/><path d="m55 60c.11 0 .22 0 .33-.01a6 6 0 1 1 2.67-4.99h-5.86l-.26.21a17.348 17.348 0 0 1 -2.24 1.48 6 6 0 0 0 5.36 3.31z" fill="#4891d3"/><circle cx="52" cy="55" fill="#656b76" r="2"/><g><path d="m7 9h14a4 4 0 0 1 4 4v16a0 0 0 0 1 0 0h-22a0 0 0 0 1 0 0v-16a4 4 0 0 1 4-4z" fill="#84d2f4"/><path d="m25 25v4h-22v-16a4 4 0 0 1 4-4h2v1a15.005 15.005 0 0 0 15 15z" fill="#57b7eb"/><rect fill="#f9e109" height="12" rx="2" width="10" x="9" y="13"/><g fill="#fcbc04"><path d="m18.71 24.04a2.03 2.03 0 0 1 -1.71.96h-6a2.006 2.006 0 0 1 -2-2v-8a1.978 1.978 0 0 1 .46-1.27 15.074 15.074 0 0 0 9.25 10.31z"/><path d="m18.71 24.04a2.03 2.03 0 0 1 -1.71.96h-6a2.006 2.006 0 0 1 -2-2v-8a1.978 1.978 0 0 1 .46-1.27 15.074 15.074 0 0 0 9.25 10.31z"/><path d="m10.231 13.154a2 2 0 0 0 -1.231 1.846v8a2 2 0 0 0 2 2h6a2 2 0 0 0 2-2h-7a1 1 0 0 1 -1-1h8v-7h-6a3 3 0 0 1 -2.769-1.846z"/></g><path d="m16.52 23h-4.52a1 1 0 0 1 -1-1h4a15.093 15.093 0 0 1 -5.54-8.28 2.041 2.041 0 0 0 -.46 1.28v8a2.006 2.006 0 0 0 2 2h6a2.03 2.03 0 0 0 1.71-.96 15.684 15.684 0 0 1 -2.19-1.04z" fill="#e59730"/><path d="m19 21h-10a2 2 0 0 1 -2-2 2 2 0 0 1 2-2h10a2 2 0 0 1 2 2 2 2 0 0 1 -2 2z" fill="#f89c8d"/><path d="m9 17a2 2 0 0 0 0 4h10a2 2 0 0 0 2-2h-10a2 2 0 0 1 -2-2z" fill="#f8664f"/><path d="m13.82 21h-4.82a2.006 2.006 0 0 1 -2-2 2.015 2.015 0 0 1 2-2h1.73a14.734 14.734 0 0 0 3.09 4z" fill="#f8664f"/><path d="m13.82 21h-4.82a2 2 0 0 1 0-4 2.006 2.006 0 0 0 2 2h1a14.411 14.411 0 0 0 1.82 2z" fill="#cc5144"/></g><path d="m6 29h16a0 0 0 0 1 0 0v2a2 2 0 0 1 -2 2h-12a2 2 0 0 1 -2-2v-2a0 0 0 0 1 0 0z" fill="#57b7eb"/><path d="m33 51h-23a14 14 0 0 1 14-14h9z" fill="#d0d8da"/><path d="m28.88 39.88a2.993 2.993 0 0 0 -.88 2.12 5 5 0 0 0 5 5v4h-23a14 14 0 0 1 14-14h9v2h-2a2.993 2.993 0 0 0 -2.12.88z" fill="#93999a"/><path d="m26 53h-18a12 12 0 0 1 12-12 6 6 0 0 1 6 6z" fill="#e9f1f2"/><path d="m35 37h-8a2 2 0 0 1 -2-2 2 2 0 0 1 2-2h8a2 2 0 0 1 2 2 2 2 0 0 1 -2 2z" fill="#57b7eb"/><path d="m55 50-4-22h-4v13a13.013 13.013 0 0 0 -7.638 9h-13.362v4a3 3 0 0 0 3 3h10.824a18 18 0 0 0 11.051-3.792z" fill="#d0d8da"/><path d="m55 50-1.6-8.8a12.105 12.105 0 0 1 -4.068-7.876l-.112-1.124a2 2 0 0 1 1.99-2.2h.154l-.364-2h-4v9.184a2.992 2.992 0 0 1 2 2.816v-.068a3.289 3.289 0 0 1 -1.569 2.851 13.038 13.038 0 0 0 -5.424 6.224 3.251 3.251 0 0 1 -3.007 1.993h-2a2.978 2.978 0 0 1 -2.221-1h-8.779v4a3 3 0 0 0 3 3h10.824a18 18 0 0 0 11.051-3.792z" fill="#93999a"/><path d="m43 53a9 9 0 0 1 18 0z" fill="#e9f1f2"/><path d="m22 29v2h-10a2.968 2.968 0 0 0 -2.82 2h-1.18a2.006 2.006 0 0 1 -2-2v-2z" fill="#4891d3"/><path d="m55 26v2h-8v-4a2.006 2.006 0 0 1 2-2 4 4 0 0 0 4 4z" fill="#d0d8da"/><circle cx="47" cy="26" fill="#57b7eb" r="2"/><path d="m48.82 26.82a2 2 0 1 1 -2.64-2.64 1.891 1.891 0 0 0 -.18.82 2.006 2.006 0 0 0 2 2 1.891 1.891 0 0 0 .82-.18z" fill="#4891d3"/><path d="m61 53h-18a9 9 0 0 1 5.48-8.28 8 8 0 0 0 7.52 5.28h4.48a8.8 8.8 0 0 1 .52 3z" fill="#d0d8da"/><path d="m26 50v3h-18a11.962 11.962 0 0 1 3.51-8.49 11.06 11.06 0 0 1 1.58-1.32 8 8 0 0 0 7.91 6.81z" fill="#d0d8da"/><path d="m37 35a2.015 2.015 0 0 1 -2 2h-8a2.006 2.006 0 0 1 -2-2 2.015 2.015 0 0 1 2-2 2.006 2.006 0 0 0 2 2z" fill="#4891d3"/></g></g></g><g id="Outline_copy" data-name="Outline copy"><g id="Layer_5_copy_4" data-name="Layer 5 copy 4"><g fill="#464a51"><path d="m11 26h6a3 3 0 0 0 3-3v-1.184a2.982 2.982 0 0 0 0-5.632v-1.184a3 3 0 0 0 -3-3h-6a3 3 0 0 0 -3 3v1.184a2.982 2.982 0 0 0 0 5.632v1.184a3 3 0 0 0 3 3zm6-2h-6a1 1 0 0 1 -1-1v-1h8v1a1 1 0 0 1 -1 1zm-6-10h6a1 1 0 0 1 1 1v1h-8v-1a1 1 0 0 1 1-1zm-2 4h1a1 1 0 0 0 2 0h1a1 1 0 0 0 2 0h1a1 1 0 0 0 2 0h1a1 1 0 0 1 0 2h-10a1 1 0 0 1 0-2z"/><path d="m35 56h-6a2 2 0 0 1 -2-2v-3h12.36a1 1 0 0 0 .972-.769 12.031 12.031 0 0 1 7.052-8.308 1 1 0 0 0 .616-.923v-6a1 1 0 0 0 -2 0v5.351a14.041 14.041 0 0 0 -7.407 8.649h-4.593v-8a1 1 0 0 0 -2 0v8h-5v-2a7.008 7.008 0 0 0 -7-7 12.945 12.945 0 0 0 -3.7.543 12.91 12.91 0 0 1 7.7-2.543h11a3 3 0 0 0 0-6h-8a3 3 0 0 0 -3 3 2.966 2.966 0 0 0 .184 1h-.184a15.016 15.016 0 0 0 -4.013.556l-1.987-1.136v-1.42h2a3 3 0 0 0 3-3v-1h2a1 1 0 0 0 1-1v-7a1 1 0 0 0 -2 0v6h-20v-15a3 3 0 0 1 3-3h14a3 3 0 0 1 3 3v5a1 1 0 0 0 2 0v-5a5.006 5.006 0 0 0 -5-5h-14a5.006 5.006 0 0 0 -5 5v16a1 1 0 0 0 1 1h2v1a3 3 0 0 0 3 3h1v3a1 1 0 0 0 .4.8l3.773 2.83a15.152 15.152 0 0 0 -2.31 3.135 13.064 13.064 0 0 0 -2.384 3.235h-3.479a1 1 0 0 0 0 2h2.636a12.89 12.89 0 0 0 -.585 3h-4.051a1 1 0 0 0 0 2h7.086a6.79 6.79 0 0 0 2.024 6h-4.11a1 1 0 0 0 0 2h9a7.008 7.008 0 0 0 7-7 6.931 6.931 0 0 0 -.086-1h1.086a4 4 0 0 0 4 4h6a1 1 0 0 0 0-2zm-9-21a1 1 0 0 1 1-1h8a1 1 0 0 1 0 2h-8a1 1 0 0 1 -1-1zm-19-4v-1h14v1a1 1 0 0 1 -1 1h-12a1 1 0 0 1 -1-1zm4 3h5v2a1 1 0 0 0 .5.868l1.051.6a14.99 14.99 0 0 0 -2.877 1.79l-3.674-2.758zm11 21a5 5 0 0 1 -10 0 4.827 4.827 0 0 1 .114-1h2.07a2.966 2.966 0 0 0 -.184 1 3 3 0 0 0 6 0 2.966 2.966 0 0 0 -.184-1h2.07a4.827 4.827 0 0 1 .114 1zm-4 0a1 1 0 1 1 -1-1 1 1 0 0 1 1 1zm-8.955-3a11.015 11.015 0 0 1 10.955-10 5.006 5.006 0 0 1 5 5v5z"/><path d="m54.821 43.412-2.621-14.412h3.8a4 4 0 0 0 0-8h-7a2.993 2.993 0 0 0 -2.859 2.141 2.981 2.981 0 0 0 -.141 5.675v3.184a1 1 0 0 0 2 0v-3h2.165l1.092 6h-.257a1 1 0 0 0 0 2h.621l.182 1h-.803a1 1 0 0 0 0 2h1.167l.553 3.036c-.239-.017-.477-.036-.72-.036a10.011 10.011 0 0 0 -10 10 1 1 0 0 0 1 1h4.818a17.107 17.107 0 0 1 -8 2h-.818a1 1 0 0 0 0 2h.82a19.028 19.028 0 0 0 5.53-.841 6.99 6.99 0 0 0 1.778 2.841h-7.128a1 1 0 0 0 0 2h12a7.008 7.008 0 0 0 7-7 6.931 6.931 0 0 0 -.086-1h2.086a1 1 0 0 0 1-1 10.012 10.012 0 0 0 -7.179-9.588zm1.179-20.412a2 2 0 0 1 0 4zm-7 0h5v4h-4.184a2.943 2.943 0 0 0 -1.529-3.7 1 1 0 0 1 .713-.3zm-2 2a1 1 0 1 1 -1 1 1 1 0 0 1 1-1zm6 30a1 1 0 1 1 -1-1 1 1 0 0 1 1 1zm4 0a4.991 4.991 0 0 1 -9.76 1.483 19.22 19.22 0 0 0 1.82-.886 3 3 0 0 0 5.94-.597 2.966 2.966 0 0 0 -.184-1h2.07a4.827 4.827 0 0 1 .114 1zm-12.938-3a8 8 0 0 1 15.876 0z"/><path d="m48.4 48.2a1 1 0 0 0 1.2 1.6 4.051 4.051 0 0 1 4.794 0 1 1 0 1 0 1.2-1.6 6.083 6.083 0 0 0 -7.194 0z"/><circle cx="29" cy="41" r="1"/><circle cx="29" cy="44" r="1"/><path d="m20 44h-2a1 1 0 0 0 0 2h2a1 1 0 0 0 0-2z"/><path d="m20 48h-4a1 1 0 0 0 0 2h4a1 1 0 0 0 0-2z"/><path d="m42 22a1 1 0 0 0 -1-1h-9a1 1 0 0 0 0 2h9a1 1 0 0 0 1-1z"/><path d="m35 17a1 1 0 0 0 1 1h10a1 1 0 0 0 0-2h-10a1 1 0 0 0 -1 1z"/><path d="m31 13h8a1 1 0 0 0 0-2h-8a1 1 0 0 0 0 2z"/><path d="m40 28a1 1 0 0 0 -1-1h-5a1 1 0 0 0 0 2h5a1 1 0 0 0 1-1z"/><path d="m9 57a1 1 0 0 0 -1-1h-3a1 1 0 0 0 0 2h3a1 1 0 0 0 1-1z"/><path d="m3 44h5a1 1 0 0 0 0-2h-5a1 1 0 0 0 0 2z"/><path d="m40 39h3a1 1 0 0 0 0-2h-3a1 1 0 0 0 0 2z"/><path d="m36 42a1 1 0 0 0 0 2h2a1 1 0 0 0 0-2z"/></g></g></g></g></svg>